<svg id="visual" viewBox="0 0 900 600" width="900" height="600" xmlns="http://www.w3.org/2000/svg" xmlns:xlink="http://www.w3.org/1999/xlink" version="1.1"><path d="M0 97L82 97L82 85L164 85L164 121L245 121L245 67L327 67L327 157L409 157L409 133L491 133L491 103L573 103L573 157L655 157L655 145L736 145L736 67L818 67L818 157L900 157L900 55L900 0L900 0L818 0L818 0L736 0L736 0L655 0L655 0L573 0L573 0L491 0L491 0L409 0L409 0L327 0L327 0L245 0L245 0L164 0L164 0L82 0L82 0L0 0Z" fill="#eeeeee"></path><path d="M0 319L82 319L82 307L164 307L164 223L245 223L245 283L327 283L327 289L409 289L409 295L491 295L491 325L573 325L573 271L655 271L655 367L736 367L736 319L818 319L818 307L900 307L900 253L900 53L900 155L818 155L818 65L736 65L736 143L655 143L655 155L573 155L573 101L491 101L491 131L409 131L409 155L327 155L327 65L245 65L245 119L164 119L164 83L82 83L82 95L0 95Z" fill="#ffffff"></path><path d="M0 451L82 451L82 439L164 439L164 343L245 343L245 337L327 337L327 355L409 355L409 361L491 361L491 367L573 367L573 379L655 379L655 421L736 421L736 373L818 373L818 361L900 361L900 313L900 251L900 305L818 305L818 317L736 317L736 365L655 365L655 269L573 269L573 323L491 323L491 293L409 293L409 287L327 287L327 281L245 281L245 221L164 221L164 305L82 305L82 317L0 317Z" fill="#ffffff"></path><path d="M0 553L82 553L82 565L164 565L164 553L245 553L245 523L327 523L327 517L409 517L409 535L491 535L491 517L573 517L573 559L655 559L655 553L736 553L736 565L818 565L818 535L900 535L900 529L900 311L900 359L818 359L818 371L736 371L736 419L655 419L655 377L573 377L573 365L491 365L491 359L409 359L409 353L327 353L327 335L245 335L245 341L164 341L164 437L82 437L82 449L0 449Z" fill="#ffffff"></path><path d="M0 601L82 601L82 601L164 601L164 601L245 601L245 601L327 601L327 601L409 601L409 601L491 601L491 601L573 601L573 601L655 601L655 601L736 601L736 601L818 601L818 601L900 601L900 601L900 527L900 533L818 533L818 563L736 563L736 551L655 551L655 557L573 557L573 515L491 515L491 533L409 533L409 515L327 515L327 521L245 521L245 551L164 551L164 563L82 563L82 551L0 551Z" fill="#eeeeee"></path></svg>